<svg data-v-423bf9ae="" xmlns="http://www.w3.org/2000/svg" viewBox="0 0 181.8907635505402 60" class="font"><!----><!----><!----><g data-v-423bf9ae="" id="df767f2f-ad91-48c0-a0a7-2841a1fe11b2" fill="black" transform="matrix(4.2016807508382215,0,0,4.2016807508382215,-4.117647349844333,-7.0588237034820835)"><path d="M2.52 7.98L6.23 7.98L6.23 6.58L2.52 6.58L2.52 4.20L6.37 4.20L6.37 2.80L0.98 2.80L0.98 12.60L2.52 12.60ZM7.77 3.64C7.77 3.89 7.86 4.11 8.05 4.28C8.24 4.46 8.46 4.55 8.72 4.55C8.98 4.55 9.21 4.46 9.39 4.28C9.58 4.11 9.67 3.89 9.67 3.64C9.67 3.39 9.58 3.17 9.39 3.00C9.21 2.82 8.98 2.73 8.72 2.73C8.46 2.73 8.24 2.82 8.05 3.00C7.86 3.17 7.77 3.39 7.77 3.64ZM7.98 6.16L7.98 12.60L9.46 12.60L9.46 6.16ZM12.68 7.15L12.68 6.16L11.21 6.16L11.21 12.60L12.68 12.60L12.68 8.96C12.68 8.51 12.85 8.13 13.18 7.82C13.51 7.51 13.89 7.35 14.32 7.35C14.73 7.35 15.04 7.45 15.25 7.64C15.45 7.83 15.55 8.18 15.55 8.68L15.55 12.60L17.02 12.60L17.02 8.54C17.02 7.63 16.83 6.98 16.43 6.59C16.03 6.21 15.47 6.02 14.74 6.02C13.86 6.02 13.17 6.40 12.68 7.15ZM18.77 1.68L18.77 12.60L20.24 12.60L20.24 1.68ZM21.57 9.38C21.57 10.40 21.91 11.21 22.59 11.82C23.27 12.43 24.11 12.74 25.12 12.74C26.12 12.74 26.97 12.43 27.64 11.82C28.32 11.21 28.66 10.40 28.66 9.38C28.66 8.36 28.32 7.55 27.64 6.94C26.97 6.33 26.12 6.02 25.12 6.02C24.11 6.02 23.27 6.33 22.59 6.94C21.91 7.55 21.57 8.36 21.57 9.38ZM23.06 9.38C23.06 8.75 23.25 8.26 23.63 7.90C24.01 7.53 24.51 7.35 25.12 7.35C25.72 7.35 26.22 7.53 26.60 7.90C26.98 8.26 27.17 8.75 27.17 9.38C27.17 10.01 26.98 10.50 26.60 10.86C26.22 11.23 25.72 11.41 25.12 11.41C24.51 11.41 24.01 11.23 23.63 10.86C23.25 10.50 23.06 10.01 23.06 9.38ZM30.98 9.38C30.98 8.73 31.17 8.22 31.55 7.87C31.93 7.52 32.42 7.35 33.04 7.35C33.59 7.35 34.06 7.52 34.45 7.85C34.83 8.18 35.03 8.69 35.03 9.38C35.03 10.07 34.83 10.58 34.45 10.91C34.06 11.24 33.59 11.41 33.04 11.41C32.42 11.41 31.93 11.23 31.55 10.88C31.17 10.54 30.98 10.03 30.98 9.38ZM29.55 13.02C29.55 13.92 29.86 14.63 30.48 15.16C31.11 15.69 31.93 15.96 32.96 15.96C33.91 15.96 34.74 15.65 35.44 15.04C36.15 14.43 36.50 13.57 36.50 12.46L36.50 6.16L35.03 6.16L35.03 7.31C34.51 6.45 33.76 6.02 32.76 6.02C31.84 6.02 31.06 6.31 30.44 6.90C29.81 7.49 29.50 8.32 29.50 9.38C29.50 10.44 29.81 11.27 30.44 11.86C31.06 12.45 31.84 12.74 32.76 12.74C33.76 12.74 34.51 12.31 35.03 11.45L35.03 12.46C35.03 13.15 34.82 13.67 34.41 14.03C33.99 14.38 33.51 14.56 32.96 14.56C32.36 14.56 31.89 14.41 31.55 14.11C31.21 13.80 31.04 13.44 31.04 13.02ZM37.27 6.16L39.87 12.21L38.39 15.68L40.07 15.68L44.27 6.16L42.59 6.16L40.77 10.71L38.95 6.16Z"></path></g><!----><!----></svg>