<svg data-v-423bf9ae="" xmlns="http://www.w3.org/2000/svg" viewBox="0 0 186.18385420046062 60" class="font"><!----><!----><!----><g data-v-423bf9ae="" id="e98f17f8-a403-458b-8c2f-5f5a65ac8a21" fill="black" transform="matrix(4.178273080396672,0,0,4.178273080396672,-1.1281366564418533,3.676880886871963)"><path d="M3.61 2.11L3.61 2.11L3.61 3.08L5.24 3.08L5.24 5.01L3.61 5.01L3.61 10.50L1.40 10.50L1.40 5.01L0.27 5.01L0.27 3.08L1.40 3.08L1.40 1.88Q1.40-0.88 4.19-0.88L4.19-0.88Q5.05-0.88 5.38-0.70L5.38-0.70L5.38 1.12Q5.18 1.02 4.70 1.02L4.70 1.02Q4.14 1.02 3.88 1.25Q3.61 1.47 3.61 2.11ZM8.72 10.50L6.51 10.50L6.51 3.08L8.72 3.08L8.72 10.50ZM6.45-0.31L8.78-0.31L8.78 2.03L6.45 2.03L6.45-0.31ZM16.93 5.47L16.93 10.50L14.73 10.50L14.73 5.84Q14.73 4.80 13.75 4.80L13.75 4.80Q12.89 4.80 12.45 5.50L12.45 5.50L12.45 10.50L10.23 10.50L10.23 5.18L10.11 3.08L12.08 3.08L12.25 4.03Q13.05 2.90 14.63 2.90L14.63 2.90Q15.81 2.90 16.37 3.63Q16.93 4.35 16.93 5.47L16.93 5.47ZM20.57 10.50L18.35 10.50L18.35-0.70L20.57-0.70L20.57 10.50ZM25.21 10.68L25.21 10.68Q23.49 10.68 22.62 9.70Q21.74 8.72 21.74 7.04L21.74 7.04L21.74 6.54Q21.74 4.86 22.62 3.88Q23.49 2.90 25.21 2.90L25.21 2.90Q26.95 2.90 27.82 3.88Q28.69 4.86 28.69 6.54L28.69 6.54L28.69 7.04Q28.69 8.72 27.82 9.70Q26.95 10.68 25.21 10.68ZM23.95 7.04Q23.95 8.78 25.21 8.78Q26.47 8.78 26.47 7.04L26.47 7.04L26.47 6.54Q26.47 4.80 25.21 4.80Q23.95 4.80 23.95 6.54L23.95 6.54L23.95 7.04ZM34.19 10.35L34.19 10.35L34.19 9.48Q33.50 10.23 32.28 10.23L32.28 10.23Q29.53 10.23 29.53 6.76L29.53 6.76L29.53 6.37Q29.53 4.79 30.20 3.84Q30.87 2.90 32.28 2.90L32.28 2.90Q33.67 2.90 34.40 3.93L34.40 3.93L34.55 3.08L36.53 3.08L36.40 5.18L36.40 10.36Q36.40 13.48 32.97 13.48L32.97 13.48Q31.22 13.48 30.44 12.75Q29.67 12.03 29.67 10.79L29.67 10.79L29.67 10.50L31.75 10.50Q31.75 11.07 32.01 11.38Q32.27 11.69 32.93 11.69Q33.59 11.69 33.89 11.39Q34.19 11.09 34.19 10.35ZM32.93 8.33L32.93 8.33Q33.74 8.33 34.19 7.63L34.19 7.63L34.19 5.50Q33.74 4.80 32.93 4.80L32.93 4.80Q32.34 4.80 32.04 5.22Q31.74 5.64 31.74 6.37L31.74 6.37L31.74 6.76Q31.74 8.33 32.93 8.33ZM39.62 3.08L41.02 7.81L42.42 3.08L44.83 3.08L42.21 10.11L41.26 13.30L38.63 13.30L39.82 10.11L37.21 3.08L39.62 3.08Z"></path></g><!----><!----></svg>